<?xml version="1.0" encoding="UTF-8" standalone="no"?>
<!DOCTYPE svg PUBLIC "-//W3C//DTD SVG 1.1//EN"
"http://www.w3.org/Graphics/SVG/1.1/DTD/svg11.dtd">
<svg viewBox="0 0 1760 990" version="1.1" xmlns="http://www.w3.org/2000/svg" xmlns:xlink="http://www.w3.org/1999/xlink">
<defs>
<clipPath id="c0_4"><path d="M0 990V0H1760V990Z"/></clipPath>
<style type="text/css"><![CDATA[
.g0_4{
fill: #FFF;
}
.g1_4{
fill: #1C4241;
}
.g2_4{
fill: #000;
}
.g3_4{
fill: #EF9C82;
}
.g4_4{
fill: #151313;
}
]]></style>
</defs>
<g clip-path="url(#c0_4)">
<path fill-rule="evenodd" d="M0 0H1760V990H0V0Z" class="g0_4"/>
<path fill-rule="evenodd" d="M0 0H1760V990H0V0Z" class="g0_4"/>
<path fill-rule="evenodd" d="M880 989.9H0V0H1759.9V989.9H880Z" class="g1_4"/>
<path fill-rule="evenodd" d="M880 989.9H0V0H1759.9V989.9H880Z" class="g2_4"/>
<image preserveAspectRatio="none" x="0" y="0" width="1760" height="990" xlink:href="img/1.jpg"/>
<g opacity="0.8">
<path fill-rule="evenodd" d="M880 989.9H0V0H1759.9V989.9H880Z" class="g2_4"/>
</g>
</g>
<path fill-rule="evenodd" d="M880 790.7h-1.7V322.9h3.3V790.7H880Z" class="g3_4"/>
<path fill-rule="evenodd" d="M803.1 375.5H756.3v-3.3h93.5v3.3H803.1Z" class="g3_4"/>
<path fill-rule="evenodd" d="M849.9 351.8c0 -1.4 .4 -2.7 1.1 -4c.7 -1.2 1.7 -2.2 2.9 -2.9c1.2 -.7 2.6 -1.1 4 -1.1H902c1.4 0 2.8 .4 4 1.1c1.2 .7 2.2 1.7 2.9 2.9c.8 1.3 1.1 2.6 1.1 4l.1 44.1c0 1.4 -.4 2.8 -1.1 4c-.7 1.3 -1.7 2.2 -3 2.9c-1.2 .8 -2.6 1.1 -4 1.1l-44.1 .1c-1.4 0 -2.8 -.4 -4 -1.1c-1.2 -.7 -2.2 -1.7 -2.9 -3c-.8 -1.2 -1.1 -2.6 -1.1 -3.9V351.8Z" class="g4_4"/>
<path fill-rule="evenodd" d="M956.8 509.2H910v-3.3h93.5v3.3H956.8Z" class="g3_4"/>
<path fill-rule="evenodd" d="M849.9 485.5c0 -1.5 .4 -2.8 1.1 -4.1c.7 -1.2 1.7 -2.2 2.9 -2.9c1.2 -.7 2.6 -1 4 -1H902c1.4 0 2.8 .4 4 1c1.2 .7 2.2 1.7 2.9 3c.8 1.2 1.1 2.6 1.1 4l.1 44.1c0 1.4 -.4 2.7 -1.1 4c-.7 1.2 -1.7 2.2 -3 2.9c-1.2 .7 -2.6 1.1 -4 1.1H857.9c-1.4 0 -2.8 -.4 -4 -1.1c-1.2 -.7 -2.2 -1.7 -2.9 -2.9c-.8 -1.2 -1.1 -2.6 -1.1 -4V485.5Z" class="g4_4"/>
<path fill-rule="evenodd" d="M803.1 629.4H756.3v-3.3h93.5v3.3H803.1Z" class="g3_4"/>
<path fill-rule="evenodd" d="M849.9 605.7c0 -1.4 .4 -2.7 1.1 -4c.7 -1.2 1.7 -2.2 2.9 -2.9c1.2 -.7 2.6 -1.1 4 -1.1H902c1.4 0 2.8 .4 4 1.1c1.2 .7 2.2 1.7 2.9 3c.8 1.2 1.1 2.6 1.1 3.9l.1 44.1c0 1.5 -.4 2.8 -1.1 4.1c-.7 1.2 -1.7 2.2 -3 2.9c-1.2 .7 -2.6 1 -4 1l-44.1 .1c-1.4 0 -2.8 -.4 -4 -1.1c-1.2 -.7 -2.2 -1.7 -2.9 -2.9c-.8 -1.3 -1.1 -2.6 -1.1 -4V605.7Z" class="g4_4"/>
<image clip-path="url(#c0_4)" preserveAspectRatio="none" x="1473" y="913" width="276" height="66" xlink:href="img/2.png"/>
</svg>