<?xml version="1.0" encoding="UTF-8" standalone="no"?>
<!DOCTYPE svg PUBLIC "-//W3C//DTD SVG 1.1//EN"
"http://www.w3.org/Graphics/SVG/1.1/DTD/svg11.dtd">
<svg viewBox="0 0 1760 990" version="1.1" xmlns="http://www.w3.org/2000/svg" xmlns:xlink="http://www.w3.org/1999/xlink">
<defs>
<clipPath id="c0_2"><path d="M0 990V0H1760V990Z"/></clipPath>
<style type="text/css"><![CDATA[
.g0_2{
fill: #FFF;
}
.g1_2{
fill: #19191A;
}
.g2_2{
fill: #050505;
}
.g3_2{
fill: #3D3D42;
}
.g4_2{
fill: none;
stroke: #56565B;
stroke-width: 0.909;
stroke-linejoin: round;
}
]]></style>
</defs>
<g clip-path="url(#c0_2)">
<path fill-rule="evenodd" d="M0 0H1760V990H0V0Z" class="g0_2"/>
<path fill-rule="evenodd" d="M0 0H1760V990H0V0Z" class="g0_2"/>
<path fill-rule="evenodd" d="M880 989.9H0V0H1759.9V989.9H880Z" class="g1_2"/>
<path fill-rule="evenodd" d="M880 989.9H0V0H1759.9V989.9H880Z" class="g2_2"/>
<image preserveAspectRatio="none" x="0" y="0" width="1760" height="990" xlink:href="img/1.jpg"/>
<g opacity="0.8">
<path fill-rule="evenodd" d="M880 989.9H0V0H1759.9V989.9H880Z" class="g2_2"/>
</g>
</g>
<path fill-rule="evenodd" d="M245.2 439.4c0 -2.2 .5 -4.3 1.6 -6.1c1 -1.8 2.6 -3.3 4.4 -4.4c1.8 -1 3.9 -1.6 6 -1.6l36.1 .1c2.1 0 4.2 .5 6 1.6c1.8 1 3.3 2.6 4.4 4.4c1.1 1.8 1.6 3.9 1.6 6v36.1c0 2.1 -.5 4.2 -1.6 6c-1.1 1.8 -2.6 3.3 -4.4 4.4c-1.8 1 -3.9 1.6 -6 1.6H257.2c-2.2 0 -4.2 -.6 -6.1 -1.6c-1.8 -1.1 -3.3 -2.6 -4.4 -4.4c-1 -1.8 -1.6 -3.9 -1.6 -6l.1 -36.1Z" class="g3_2"/>
<path d="M245.2 439.4c0 -2.2 .5 -4.3 1.6 -6.1c1 -1.8 2.6 -3.3 4.4 -4.4c1.8 -1 3.9 -1.6 6 -1.6l36.1 .1c2.1 0 4.2 .5 6 1.6c1.8 1 3.3 2.6 4.4 4.4c1.1 1.8 1.6 3.9 1.6 6v36.1c0 2.1 -.5 4.2 -1.6 6c-1.1 1.8 -2.6 3.3 -4.4 4.4c-1.8 1 -3.9 1.6 -6 1.6H257.2c-2.2 0 -4.2 -.6 -6.1 -1.6c-1.8 -1.1 -3.3 -2.6 -4.4 -4.4c-1 -1.8 -1.6 -3.9 -1.6 -6l.1 -36.1Z" class="g4_2"/>
<path fill-rule="evenodd" d="M677.3 439.4c0 -2.2 .6 -4.3 1.6 -6.1c1.1 -1.8 2.6 -3.3 4.4 -4.4c1.9 -1 3.9 -1.6 6.1 -1.6l36 .1c2.2 0 4.2 .5 6.1 1.6c1.8 1 3.3 2.6 4.4 4.4c1 1.8 1.6 3.9 1.6 6v36.1c0 2.1 -.6 4.2 -1.6 6c-1.1 1.8 -2.6 3.3 -4.4 4.4c-1.9 1 -3.9 1.6 -6.1 1.6H689.3c-2.1 0 -4.2 -.6 -6 -1.6c-1.8 -1.1 -3.3 -2.6 -4.4 -4.4c-1.1 -1.8 -1.6 -3.9 -1.6 -6V439.4Z" class="g3_2"/>
<path d="M677.3 439.4c0 -2.2 .6 -4.3 1.6 -6.1c1.1 -1.8 2.6 -3.3 4.4 -4.4c1.9 -1 3.9 -1.6 6.1 -1.6l36 .1c2.2 0 4.2 .5 6.1 1.6c1.8 1 3.3 2.6 4.4 4.4c1 1.8 1.6 3.9 1.6 6v36.1c0 2.1 -.6 4.2 -1.6 6c-1.1 1.8 -2.6 3.3 -4.4 4.4c-1.9 1 -3.9 1.6 -6.1 1.6H689.3c-2.1 0 -4.2 -.6 -6 -1.6c-1.8 -1.1 -3.3 -2.6 -4.4 -4.4c-1.1 -1.8 -1.6 -3.9 -1.6 -6V439.4Z" class="g4_2"/>
<path fill-rule="evenodd" d="M1109.4 439.4c0 -2.2 .6 -4.3 1.6 -6.1c1.1 -1.8 2.6 -3.3 4.5 -4.4c1.8 -1 3.9 -1.6 6 -1.6l36.1 .1c2.1 0 4.2 .5 6 1.6c1.8 1 3.3 2.6 4.4 4.4c1 1.8 1.6 3.9 1.6 6v36.1c0 2.1 -.6 4.2 -1.6 6c-1.1 1.8 -2.6 3.3 -4.4 4.4c-1.8 1 -3.9 1.6 -6 1.6h-36.2c-2.1 0 -4.2 -.6 -6 -1.6c-1.8 -1.1 -3.3 -2.6 -4.4 -4.4c-1 -1.8 -1.6 -3.9 -1.6 -6V439.4Z" class="g3_2"/>
<path d="M1109.4 439.4c0 -2.2 .6 -4.3 1.6 -6.1c1.1 -1.8 2.6 -3.3 4.5 -4.4c1.8 -1 3.9 -1.6 6 -1.6l36.1 .1c2.1 0 4.2 .5 6 1.6c1.8 1 3.3 2.6 4.4 4.4c1 1.8 1.6 3.9 1.6 6v36.1c0 2.1 -.6 4.2 -1.6 6c-1.1 1.8 -2.6 3.3 -4.4 4.4c-1.8 1 -3.9 1.6 -6 1.6h-36.2c-2.1 0 -4.2 -.6 -6 -1.6c-1.8 -1.1 -3.3 -2.6 -4.4 -4.4c-1 -1.8 -1.6 -3.9 -1.6 -6V439.4Z" class="g4_2"/>
<image clip-path="url(#c0_2)" preserveAspectRatio="none" x="1473" y="913" width="276" height="66" xlink:href="img/2.png"/>
</svg>