<?xml version="1.0" encoding="UTF-8" standalone="no"?>
<!DOCTYPE svg PUBLIC "-//W3C//DTD SVG 1.1//EN"
"http://www.w3.org/Graphics/SVG/1.1/DTD/svg11.dtd">
<svg viewBox="0 0 1760 990" version="1.1" xmlns="http://www.w3.org/2000/svg" xmlns:xlink="http://www.w3.org/1999/xlink">
<defs>
<clipPath id="c0_4"><path d="M0 990V0H1760V990Z"/></clipPath>
<style type="text/css"><![CDATA[
.g0_4{
fill: #FFF;
}
.g1_4{
fill: #19191A;
}
.g2_4{
fill: #050505;
}
.g3_4{
fill: #3D3D42;
}
.g4_4{
fill: none;
stroke: #56565B;
stroke-width: 0.909;
stroke-linejoin: round;
}
]]></style>
</defs>
<g clip-path="url(#c0_4)">
<path fill-rule="evenodd" d="M0 0H1760V990H0V0Z" class="g0_4"/>
<path fill-rule="evenodd" d="M0 0H1760V990H0V0Z" class="g0_4"/>
<path fill-rule="evenodd" d="M880 989.9H0V0H1759.9V989.9H880Z" class="g1_4"/>
<path fill-rule="evenodd" d="M880 989.9H0V0H1759.9V989.9H880Z" class="g2_4"/>
</g>
<path fill-rule="evenodd" d="M245.1 363.5c0 -2.1 .6 -4.2 1.6 -6c1.1 -1.9 2.6 -3.4 4.4 -4.5c1.9 -1 3.9 -1.6 6.1 -1.6l597.3 .1c2.2 0 4.2 .5 6.1 1.6c1.8 1.1 3.3 2.6 4.4 4.4c1 1.8 1.6 3.9 1.6 6V538c0 2.2 -.6 4.2 -1.6 6.1c-1.1 1.8 -2.6 3.3 -4.4 4.4c-1.9 1 -3.9 1.6 -6.1 1.6H257.1c-2.1 0 -4.2 -.6 -6 -1.6c-1.8 -1.1 -3.3 -2.6 -4.4 -4.4c-1.1 -1.9 -1.6 -3.9 -1.6 -6.1V363.5Z" class="g3_4"/>
<path d="M245.1 363.5c0 -2.1 .6 -4.2 1.6 -6c1.1 -1.9 2.6 -3.4 4.4 -4.5c1.9 -1 3.9 -1.6 6.1 -1.6l597.3 .1c2.2 0 4.2 .5 6.1 1.6c1.8 1.1 3.3 2.6 4.4 4.4c1 1.8 1.6 3.9 1.6 6V538c0 2.2 -.6 4.2 -1.6 6.1c-1.1 1.8 -2.6 3.3 -4.4 4.4c-1.9 1 -3.9 1.6 -6.1 1.6H257.1c-2.1 0 -4.2 -.6 -6 -1.6c-1.8 -1.1 -3.3 -2.6 -4.4 -4.4c-1.1 -1.9 -1.6 -3.9 -1.6 -6.1V363.5Z" class="g4_4"/>
<path fill-rule="evenodd" d="M893.3 363.5c0 -2.1 .6 -4.2 1.6 -6c1.1 -1.9 2.6 -3.4 4.5 -4.5c1.8 -1 3.9 -1.6 6 -1.6l597.4 .1c2.1 0 4.2 .5 6 1.6c1.8 1.1 3.3 2.6 4.4 4.4c1 1.8 1.6 3.9 1.6 6V538c0 2.2 -.6 4.2 -1.6 6.1c-1.1 1.8 -2.6 3.3 -4.4 4.4c-1.8 1 -3.9 1.6 -6 1.6H905.3c-2.1 0 -4.2 -.6 -6 -1.6c-1.8 -1.1 -3.3 -2.6 -4.4 -4.4c-1 -1.9 -1.6 -3.9 -1.6 -6.1V363.5Z" class="g3_4"/>
<path d="M893.3 363.5c0 -2.1 .6 -4.2 1.6 -6c1.1 -1.9 2.6 -3.4 4.5 -4.5c1.8 -1 3.9 -1.6 6 -1.6l597.4 .1c2.1 0 4.2 .5 6 1.6c1.8 1.1 3.3 2.6 4.4 4.4c1 1.8 1.6 3.9 1.6 6V538c0 2.2 -.6 4.2 -1.6 6.1c-1.1 1.8 -2.6 3.3 -4.4 4.4c-1.8 1 -3.9 1.6 -6 1.6H905.3c-2.1 0 -4.2 -.6 -6 -1.6c-1.8 -1.1 -3.3 -2.6 -4.4 -4.4c-1 -1.9 -1.6 -3.9 -1.6 -6.1V363.5Z" class="g4_4"/>
<path fill-rule="evenodd" d="M245.1 588.8c0 -2.1 .6 -4.2 1.6 -6c1.1 -1.8 2.6 -3.4 4.4 -4.4c1.9 -1.1 3.9 -1.6 6.1 -1.6H854.5c2.2 0 4.2 .6 6.1 1.6c1.8 1.1 3.3 2.6 4.4 4.4c1 1.8 1.6 3.9 1.6 6V763.4c0 2.1 -.6 4.2 -1.6 6c-1.1 1.8 -2.6 3.3 -4.4 4.4c-1.9 1.1 -3.9 1.6 -6.1 1.6H257.1c-2.1 0 -4.2 -.5 -6 -1.6c-1.8 -1.1 -3.3 -2.6 -4.4 -4.4c-1.1 -1.8 -1.6 -3.9 -1.6 -6V588.8Z" class="g3_4"/>
<path d="M245.1 588.8c0 -2.1 .6 -4.2 1.6 -6c1.1 -1.8 2.6 -3.4 4.4 -4.4c1.9 -1.1 3.9 -1.6 6.1 -1.6H854.5c2.2 0 4.2 .6 6.1 1.6c1.8 1.1 3.3 2.6 4.4 4.4c1 1.8 1.6 3.9 1.6 6V763.4c0 2.1 -.6 4.2 -1.6 6c-1.1 1.8 -2.6 3.3 -4.4 4.4c-1.9 1.1 -3.9 1.6 -6.1 1.6H257.1c-2.1 0 -4.2 -.5 -6 -1.6c-1.8 -1.1 -3.3 -2.6 -4.4 -4.4c-1.1 -1.8 -1.6 -3.9 -1.6 -6V588.8Z" class="g4_4"/>
<path fill-rule="evenodd" d="M893.3 588.8c0 -2.1 .6 -4.2 1.6 -6c1.1 -1.8 2.6 -3.4 4.5 -4.4c1.8 -1.1 3.9 -1.6 6 -1.6h597.4c2.1 0 4.2 .6 6 1.6c1.8 1.1 3.3 2.6 4.4 4.4c1 1.8 1.6 3.9 1.6 6V763.4c0 2.1 -.6 4.2 -1.6 6c-1.1 1.8 -2.6 3.3 -4.4 4.4c-1.8 1.1 -3.9 1.6 -6 1.6H905.3c-2.1 0 -4.2 -.5 -6 -1.6c-1.8 -1.1 -3.3 -2.6 -4.4 -4.4c-1 -1.8 -1.6 -3.9 -1.6 -6V588.8Z" class="g3_4"/>
<path d="M893.3 588.8c0 -2.1 .6 -4.2 1.6 -6c1.1 -1.8 2.6 -3.4 4.5 -4.4c1.8 -1.1 3.9 -1.6 6 -1.6h597.4c2.1 0 4.2 .6 6 1.6c1.8 1.1 3.3 2.6 4.4 4.4c1 1.8 1.6 3.9 1.6 6V763.4c0 2.1 -.6 4.2 -1.6 6c-1.1 1.8 -2.6 3.3 -4.4 4.4c-1.8 1.1 -3.9 1.6 -6 1.6H905.3c-2.1 0 -4.2 -.5 -6 -1.6c-1.8 -1.1 -3.3 -2.6 -4.4 -4.4c-1 -1.8 -1.6 -3.9 -1.6 -6V588.8Z" class="g4_4"/>
<image clip-path="url(#c0_4)" preserveAspectRatio="none" x="1473" y="913" width="276" height="66" xlink:href="img/1.png"/>
</svg>