<?xml version="1.0" encoding="UTF-8" standalone="no"?>
<!DOCTYPE svg PUBLIC "-//W3C//DTD SVG 1.1//EN"
"http://www.w3.org/Graphics/SVG/1.1/DTD/svg11.dtd">
<svg viewBox="0 0 1760 990" version="1.1" xmlns="http://www.w3.org/2000/svg" xmlns:xlink="http://www.w3.org/1999/xlink">
<defs>
<clipPath id="c0_3"><path d="M0 990V0H1760V990Z"/></clipPath>
<style type="text/css"><![CDATA[
.g0_3{
fill: #FFF;
}
.g1_3{
fill: #19191A;
}
.g2_3{
fill: #050505;
}
.g3_3{
fill: #56565B;
}
.g4_3{
fill: #3D3D42;
}
.g5_3{
fill: none;
stroke: #56565B;
stroke-width: 0.909;
stroke-linejoin: round;
}
]]></style>
</defs>
<g clip-path="url(#c0_3)">
<path fill-rule="evenodd" d="M0 0H1760V990H0V0Z" class="g0_3"/>
<path fill-rule="evenodd" d="M0 0H1760V990H0V0Z" class="g0_3"/>
<path fill-rule="evenodd" d="M880 989.9H0V0H1759.9V989.9H880Z" class="g1_3"/>
<path fill-rule="evenodd" d="M880 989.9H0V0H1759.9V989.9H880Z" class="g2_3"/>
<image preserveAspectRatio="none" x="1321" y="27" width="440" height="936" xlink:href="img/1.png"/>
</g>
<path fill-rule="evenodd" d="M137.7 322.1c0 -.5 .1 -.9 .3 -1.4c.3 -.4 .6 -.7 1 -.9c.4 -.3 .9 -.4 1.4 -.4h-.1c.5 0 .9 .2 1.4 .4c.3 .2 .7 .5 .9 1c.3 .4 .4 .8 .4 1.3V875c0 .5 -.1 .9 -.3 1.3c-.3 .4 -.6 .8 -1 1c-.4 .2 -.9 .4 -1.3 .4h-.1c-.5 0 -.9 -.2 -1.3 -.4c-.4 -.2 -.8 -.5 -1 -1c-.2 -.4 -.3 -.8 -.3 -1.3V322.1Z" class="g3_3"/>
<path fill-rule="evenodd" d="M170.4 370.4c0 -.5 .1 -.9 .3 -1.3c.3 -.4 .6 -.8 1 -1c.4 -.2 .9 -.3 1.4 -.3h88.1c.5 0 .9 .1 1.4 .3c.4 .3 .7 .6 .9 1c.3 .4 .4 .9 .4 1.3c0 .5 -.1 .9 -.3 1.3c-.3 .4 -.6 .8 -1 1c-.4 .3 -.9 .4 -1.3 .4H173c-.5 0 -.9 -.1 -1.3 -.4c-.4 -.2 -.8 -.5 -1 -1c-.2 -.3 -.3 -.8 -.3 -1.3Z" class="g3_3"/>
<path fill-rule="evenodd" d="M110.3 352.3c0 -2.1 .5 -4.2 1.6 -6c1 -1.8 2.6 -3.3 4.4 -4.4c1.8 -1 3.9 -1.6 6 -1.6l36.1 .1c2.1 0 4.2 .5 6 1.6c1.8 1 3.3 2.6 4.4 4.4c1.1 1.8 1.6 3.9 1.6 6v36.1c0 2.1 -.5 4.2 -1.6 6c-1.1 1.8 -2.6 3.3 -4.4 4.4c-1.8 1 -3.9 1.6 -6 1.6H122.3c-2.2 0 -4.2 -.6 -6.1 -1.6c-1.8 -1.1 -3.3 -2.6 -4.4 -4.4c-1 -1.8 -1.6 -3.9 -1.6 -6l.1 -36.2Z" class="g4_3"/>
<path d="M110.3 352.3c0 -2.1 .5 -4.2 1.6 -6c1 -1.8 2.6 -3.3 4.4 -4.4c1.8 -1 3.9 -1.6 6 -1.6l36.1 .1c2.1 0 4.2 .5 6 1.6c1.8 1 3.3 2.6 4.4 4.4c1.1 1.8 1.6 3.9 1.6 6v36.1c0 2.1 -.5 4.2 -1.6 6c-1.1 1.8 -2.6 3.3 -4.4 4.4c-1.8 1 -3.9 1.6 -6 1.6H122.3c-2.2 0 -4.2 -.6 -6.1 -1.6c-1.8 -1.1 -3.3 -2.6 -4.4 -4.4c-1 -1.8 -1.6 -3.9 -1.6 -6l.1 -36.2Z" class="g5_3"/>
<path fill-rule="evenodd" d="M170.4 593.9c0 -.5 .1 -.9 .3 -1.4c.3 -.4 .6 -.7 1 -.9c.4 -.3 .9 -.4 1.4 -.4h88.1c.5 0 .9 .2 1.4 .4c.4 .2 .7 .5 .9 1c.3 .4 .4 .8 .4 1.3c0 .4 -.1 .9 -.3 1.3c-.3 .4 -.6 .7 -1 1c-.4 .2 -.9 .4 -1.3 .4H173c-.5 0 -.9 -.2 -1.3 -.4c-.4 -.3 -.8 -.6 -1 -1c-.2 -.4 -.3 -.9 -.3 -1.3Z" class="g3_3"/>
<path fill-rule="evenodd" d="M110.3 575.8c0 -2.1 .5 -4.2 1.6 -6c1 -1.8 2.6 -3.3 4.4 -4.4c1.8 -1.1 3.9 -1.6 6 -1.6h36.1c2.1 0 4.2 .6 6 1.6c1.8 1.1 3.3 2.6 4.4 4.4c1.1 1.9 1.6 3.9 1.6 6.1v36c0 2.2 -.5 4.2 -1.6 6c-1.1 1.9 -2.6 3.4 -4.4 4.5c-1.8 1 -3.9 1.6 -6 1.6H122.3c-2.2 0 -4.2 -.6 -6.1 -1.6c-1.8 -1.1 -3.3 -2.6 -4.4 -4.5c-1 -1.8 -1.6 -3.8 -1.6 -6l.1 -36.1Z" class="g4_3"/>
<path d="M110.3 575.8c0 -2.1 .5 -4.2 1.6 -6c1 -1.8 2.6 -3.3 4.4 -4.4c1.8 -1.1 3.9 -1.6 6 -1.6h36.1c2.1 0 4.2 .6 6 1.6c1.8 1.1 3.3 2.6 4.4 4.4c1.1 1.9 1.6 3.9 1.6 6.1v36c0 2.2 -.5 4.2 -1.6 6c-1.1 1.9 -2.6 3.4 -4.4 4.5c-1.8 1 -3.9 1.6 -6 1.6H122.3c-2.2 0 -4.2 -.6 -6.1 -1.6c-1.8 -1.1 -3.3 -2.6 -4.4 -4.5c-1 -1.8 -1.6 -3.8 -1.6 -6l.1 -36.1Z" class="g5_3"/>
<path fill-rule="evenodd" d="M170.4 774.6c0 -.5 .1 -.9 .3 -1.4c.3 -.3 .6 -.7 1 -.9c.4 -.3 .9 -.4 1.4 -.4h88.1c.5 0 .9 .2 1.4 .4c.4 .3 .7 .6 .9 1c.3 .4 .4 .9 .4 1.3c0 .5 -.1 .9 -.3 1.3c-.3 .4 -.6 .8 -1 1c-.4 .2 -.9 .4 -1.3 .4H173c-.5 0 -.9 -.2 -1.3 -.4c-.4 -.2 -.8 -.5 -1 -1c-.2 -.4 -.3 -.8 -.3 -1.3Z" class="g3_3"/>
<path fill-rule="evenodd" d="M110.3 756.6c0 -2.1 .5 -4.2 1.6 -6c1 -1.9 2.6 -3.4 4.4 -4.5c1.8 -1 3.9 -1.6 6 -1.6l36.1 .1c2.1 0 4.2 .5 6 1.6c1.8 1.1 3.3 2.6 4.4 4.4c1.1 1.8 1.6 3.9 1.6 6v36.1c0 2.1 -.5 4.2 -1.6 6c-1.1 1.8 -2.6 3.3 -4.4 4.4c-1.8 1.1 -3.9 1.6 -6 1.6H122.3c-2.2 0 -4.2 -.5 -6.1 -1.6c-1.8 -1.1 -3.3 -2.6 -4.4 -4.4c-1 -1.8 -1.6 -3.9 -1.6 -6l.1 -36.1Z" class="g4_3"/>
<path d="M110.3 756.6c0 -2.1 .5 -4.2 1.6 -6c1 -1.9 2.6 -3.4 4.4 -4.5c1.8 -1 3.9 -1.6 6 -1.6l36.1 .1c2.1 0 4.2 .5 6 1.6c1.8 1.1 3.3 2.6 4.4 4.4c1.1 1.8 1.6 3.9 1.6 6v36.1c0 2.1 -.5 4.2 -1.6 6c-1.1 1.8 -2.6 3.3 -4.4 4.4c-1.8 1.1 -3.9 1.6 -6 1.6H122.3c-2.2 0 -4.2 -.5 -6.1 -1.6c-1.8 -1.1 -3.3 -2.6 -4.4 -4.4c-1 -1.8 -1.6 -3.9 -1.6 -6l.1 -36.1Z" class="g5_3"/>
<image clip-path="url(#c0_3)" preserveAspectRatio="none" x="1473" y="913" width="276" height="66" xlink:href="img/2.png"/>
</svg>