<?xml version="1.0" encoding="UTF-8" standalone="no"?>
<!DOCTYPE svg PUBLIC "-//W3C//DTD SVG 1.1//EN"
"http://www.w3.org/Graphics/SVG/1.1/DTD/svg11.dtd">
<svg viewBox="0 0 1760 990" version="1.1" xmlns="http://www.w3.org/2000/svg" xmlns:xlink="http://www.w3.org/1999/xlink">
<defs>
<clipPath id="c0_5"><path d="M0 990V0H1760V990Z"/></clipPath>
<style type="text/css"><![CDATA[
.g0_5{
fill: #FFF;
}
.g1_5{
fill: #19191A;
}
.g2_5{
fill: #050505;
}
.g3_5{
fill: #56565B;
}
.g4_5{
fill: #3D3D42;
}
.g5_5{
fill: none;
stroke: #56565B;
stroke-width: 0.909;
stroke-linejoin: round;
}
]]></style>
</defs>
<g clip-path="url(#c0_5)">
<path fill-rule="evenodd" d="M0 0H1760V990H0V0Z" class="g0_5"/>
<path fill-rule="evenodd" d="M0 0H1760V990H0V0Z" class="g0_5"/>
<path fill-rule="evenodd" d="M880 989.9H0V0H1759.9V989.9H880Z" class="g1_5"/>
<path fill-rule="evenodd" d="M880 989.9H0V0H1759.9V989.9H880Z" class="g2_5"/>
</g>
<path fill-rule="evenodd" d="M877.3 313c0 -.5 .1 -.9 .4 -1.4c.2 -.4 .5 -.7 1 -.9c.3 -.3 .8 -.4 1.3 -.4c.4 0 .9 .2 1.3 .4c.4 .2 .7 .5 1 1c.2 .4 .3 .8 .3 1.3V813.9c0 .5 -.1 .9 -.3 1.4c-.3 .3 -.6 .7 -1 .9c-.4 .3 -.9 .4 -1.3 .4c-.5 0 -1 -.1 -1.4 -.3c-.4 -.3 -.7 -.6 -.9 -1c-.3 -.4 -.4 -.9 -.4 -1.3V313Z" class="g3_5"/>
<path fill-rule="evenodd" d="M756.4 361.3c0 -.5 .1 -.9 .3 -1.4c.3 -.4 .6 -.7 1 -.9c.4 -.3 .9 -.4 1.3 -.4h88.2c.5 0 .9 .2 1.4 .4c.3 .2 .7 .5 .9 1c.3 .4 .4 .8 .4 1.3c0 .4 -.1 .9 -.3 1.3c-.3 .4 -.6 .7 -1 1c-.4 .2 -.9 .4 -1.3 .4H759c-.5 0 -.9 -.2 -1.3 -.4c-.4 -.3 -.8 -.6 -1 -1c-.3 -.4 -.3 -.9 -.3 -1.3Z" class="g3_5"/>
<path fill-rule="evenodd" d="M849.9 343.3c0 -2.2 .6 -4.2 1.6 -6.1c1.1 -1.8 2.6 -3.3 4.5 -4.4c1.8 -1 3.9 -1.6 6 -1.6l36.1 .1c2.1 0 4.2 .5 6 1.6c1.8 1 3.3 2.6 4.4 4.4c1 1.8 1.6 3.9 1.6 6v36.1c0 2.1 -.6 4.2 -1.6 6c-1.1 1.8 -2.6 3.3 -4.4 4.4c-1.8 1 -3.9 1.6 -6 1.6H861.9c-2.1 0 -4.2 -.6 -6 -1.6c-1.8 -1.1 -3.3 -2.6 -4.4 -4.4c-1 -1.8 -1.6 -3.9 -1.6 -6V343.3Z" class="g4_5"/>
<path d="M849.9 343.3c0 -2.2 .6 -4.2 1.6 -6.1c1.1 -1.8 2.6 -3.3 4.5 -4.4c1.8 -1 3.9 -1.6 6 -1.6l36.1 .1c2.1 0 4.2 .5 6 1.6c1.8 1 3.3 2.6 4.4 4.4c1 1.8 1.6 3.9 1.6 6v36.1c0 2.1 -.6 4.2 -1.6 6c-1.1 1.8 -2.6 3.3 -4.4 4.4c-1.8 1 -3.9 1.6 -6 1.6H861.9c-2.1 0 -4.2 -.6 -6 -1.6c-1.8 -1.1 -3.3 -2.6 -4.4 -4.4c-1 -1.8 -1.6 -3.9 -1.6 -6V343.3Z" class="g5_5"/>
<path fill-rule="evenodd" d="M910 494.9c0 -.5 .1 -.9 .4 -1.3c.2 -.4 .5 -.8 1 -1c.3 -.2 .8 -.3 1.3 -.3h88.2c.4 0 .9 .1 1.3 .3c.4 .3 .7 .6 1 1c.2 .4 .4 .9 .4 1.4v-.1c0 .5 -.2 .9 -.4 1.4c-.3 .3 -.6 .7 -1 .9c-.4 .3 -.9 .4 -1.3 .4H912.7c-.5 0 -1 -.1 -1.4 -.3c-.4 -.3 -.7 -.6 -.9 -1c-.3 -.4 -.4 -.9 -.4 -1.3v-.1Z" class="g3_5"/>
<path fill-rule="evenodd" d="M849.9 476.9c0 -2.2 .6 -4.2 1.6 -6.1c1.1 -1.8 2.6 -3.3 4.5 -4.4c1.8 -1 3.9 -1.6 6 -1.6l36.1 .1c2.1 0 4.2 .5 6 1.6c1.8 1 3.3 2.6 4.4 4.4c1 1.8 1.6 3.9 1.6 6V513c0 2.1 -.6 4.2 -1.6 6c-1.1 1.8 -2.6 3.3 -4.4 4.4c-1.8 1 -3.9 1.6 -6 1.6H861.9c-2.1 0 -4.2 -.6 -6 -1.6c-1.8 -1.1 -3.3 -2.6 -4.4 -4.4c-1 -1.8 -1.6 -3.9 -1.6 -6V476.9Z" class="g4_5"/>
<path d="M849.9 476.9c0 -2.2 .6 -4.2 1.6 -6.1c1.1 -1.8 2.6 -3.3 4.5 -4.4c1.8 -1 3.9 -1.6 6 -1.6l36.1 .1c2.1 0 4.2 .5 6 1.6c1.8 1 3.3 2.6 4.4 4.4c1 1.8 1.6 3.9 1.6 6V513c0 2.1 -.6 4.2 -1.6 6c-1.1 1.8 -2.6 3.3 -4.4 4.4c-1.8 1 -3.9 1.6 -6 1.6H861.9c-2.1 0 -4.2 -.6 -6 -1.6c-1.8 -1.1 -3.3 -2.6 -4.4 -4.4c-1 -1.8 -1.6 -3.9 -1.6 -6V476.9Z" class="g5_5"/>
<path fill-rule="evenodd" d="M756.4 628c0 -.4 .1 -.9 .3 -1.3c.3 -.4 .6 -.7 1 -1c.4 -.2 .9 -.3 1.3 -.3h88.2c.5 0 .9 .1 1.4 .3c.3 .3 .7 .6 .9 1c.3 .4 .4 .9 .4 1.4V628c0 .5 -.1 .9 -.3 1.4c-.3 .4 -.6 .7 -1 .9c-.4 .3 -.9 .4 -1.3 .4H759c-.5 0 -.9 -.1 -1.3 -.3c-.4 -.3 -.8 -.6 -1 -1c-.3 -.4 -.3 -.9 -.3 -1.3V628Z" class="g3_5"/>
<path fill-rule="evenodd" d="M849.9 610c0 -2.1 .6 -4.2 1.6 -6c1.1 -1.9 2.6 -3.4 4.5 -4.5c1.8 -1 3.9 -1.6 6 -1.6l36.1 .1c2.1 0 4.2 .5 6 1.6c1.8 1.1 3.3 2.6 4.4 4.4c1 1.8 1.6 3.9 1.6 6v36.1c0 2.1 -.6 4.2 -1.6 6c-1.1 1.8 -2.6 3.4 -4.4 4.4c-1.8 1.1 -3.9 1.6 -6 1.6H861.9c-2.1 0 -4.2 -.5 -6 -1.6c-1.8 -1 -3.3 -2.6 -4.4 -4.4c-1 -1.8 -1.6 -3.9 -1.6 -6V610Z" class="g4_5"/>
<path d="M849.9 610c0 -2.1 .6 -4.2 1.6 -6c1.1 -1.9 2.6 -3.4 4.5 -4.5c1.8 -1 3.9 -1.6 6 -1.6l36.1 .1c2.1 0 4.2 .5 6 1.6c1.8 1.1 3.3 2.6 4.4 4.4c1 1.8 1.6 3.9 1.6 6v36.1c0 2.1 -.6 4.2 -1.6 6c-1.1 1.8 -2.6 3.4 -4.4 4.4c-1.8 1.1 -3.9 1.6 -6 1.6H861.9c-2.1 0 -4.2 -.5 -6 -1.6c-1.8 -1 -3.3 -2.6 -4.4 -4.4c-1 -1.8 -1.6 -3.9 -1.6 -6V610Z" class="g5_5"/>
<image clip-path="url(#c0_5)" preserveAspectRatio="none" x="1473" y="913" width="276" height="66" xlink:href="img/1.png"/>
</svg>