<?xml version="1.0" encoding="UTF-8" standalone="no"?>
<!DOCTYPE svg PUBLIC "-//W3C//DTD SVG 1.1//EN"
"http://www.w3.org/Graphics/SVG/1.1/DTD/svg11.dtd">
<svg viewBox="0 0 1760 990" version="1.1" xmlns="http://www.w3.org/2000/svg" xmlns:xlink="http://www.w3.org/1999/xlink">
<defs>
<clipPath id="c0_2"><path d="M0 990V0H1760V990Z"/></clipPath>
<style type="text/css"><![CDATA[
.g0_2{
fill: #FFF;
}
.g1_2{
fill: #1C4241;
}
.g2_2{
fill: #123332;
}
.g3_2{
fill: #234A49;
}
]]></style>
</defs>
<g clip-path="url(#c0_2)">
<path fill-rule="evenodd" d="M0 0H1760V990H0V0Z" class="g0_2"/>
<path fill-rule="evenodd" d="M0 0H1760V990H0V0Z" class="g0_2"/>
<path fill-rule="evenodd" d="M880 989.9H0V0H1759.9V989.9H880Z" class="g1_2"/>
<path fill-rule="evenodd" d="M880 989.9H0V0H1759.9V989.9H880Z" class="g2_2"/>
<image preserveAspectRatio="none" x="0" y="27" width="439" height="936" xlink:href="img/1.png"/>
</g>
<path fill-rule="evenodd" d="M540.2 420.3c0 -1.4 .4 -2.7 1.1 -4c.7 -1.2 1.7 -2.2 2.9 -2.9c1.3 -.7 2.6 -1.1 4 -1.1h44.1c1.4 0 2.8 .4 4 1.1c1.3 .7 2.2 1.7 2.9 3c.8 1.2 1.1 2.6 1.1 3.9l.1 44.1c0 1.5 -.4 2.8 -1.1 4.1c-.7 1.2 -1.7 2.2 -3 2.9c-1.2 .7 -2.6 1 -3.9 1l-44.2 .1c-1.4 0 -2.7 -.4 -4 -1.1c-1.2 -.7 -2.2 -1.7 -2.9 -2.9c-.7 -1.3 -1.1 -2.6 -1.1 -4V420.3Z" class="g3_2"/>
<path fill-rule="evenodd" d="M1113.4 420.3c0 -1.4 .4 -2.7 1.1 -4c.7 -1.2 1.7 -2.2 2.9 -2.9c1.2 -.7 2.6 -1.1 4 -1.1h44.1c1.4 0 2.8 .4 4 1.1c1.2 .7 2.2 1.7 2.9 3c.7 1.2 1.1 2.6 1.1 3.9v44.1c0 1.5 -.4 2.8 -1 4.1c-.7 1.2 -1.7 2.2 -3 2.9c-1.2 .7 -2.6 1 -4 1l-44.1 .1c-1.4 0 -2.8 -.4 -4 -1.1c-1.2 -.7 -2.2 -1.7 -2.9 -2.9c-.8 -1.3 -1.1 -2.6 -1.1 -4V420.3Z" class="g3_2"/>
<path fill-rule="evenodd" d="M540.2 620.5c0 -1.5 .4 -2.8 1.1 -4.1c.7 -1.2 1.7 -2.2 2.9 -2.9c1.3 -.7 2.6 -1.1 4 -1.1h44.1c1.4 0 2.8 .4 4 1.1c1.3 .7 2.2 1.7 2.9 3c.8 1.2 1.1 2.6 1.1 4l.1 44c0 1.5 -.4 2.8 -1.1 4.1c-.7 1.2 -1.7 2.2 -3 2.9c-1.2 .7 -2.6 1.1 -3.9 1.1H548.2c-1.4 0 -2.7 -.4 -4 -1.1c-1.2 -.7 -2.2 -1.7 -2.9 -2.9c-.7 -1.2 -1.1 -2.6 -1.1 -4V620.5Z" class="g3_2"/>
<image clip-path="url(#c0_2)" preserveAspectRatio="none" x="1473" y="913" width="276" height="66" xlink:href="img/2.png"/>
</svg>